<?xml version="1.0" encoding="utf-8"?>
<!-- Generator: Adobe Illustrator 27.4.0, SVG Export Plug-In . SVG Version: 6.00 Build 0)  -->
<svg version="1.1" id="Layer_1" xmlns="http://www.w3.org/2000/svg" xmlns:xlink="http://www.w3.org/1999/xlink" x="0px" y="0px"
	 viewBox="0 0 612 612" style="enable-background:new 0 0 612 612;" xml:space="preserve">
<style type="text/css">
	.st0{display:none;}
	.st1{display:inline;fill:#F32735;}
	.st2{display:inline;}
	.st3{display:inline;fill:#FFFFFF;}
	.st4{fill:#F32735;}
	.st5{clip-path:url(#SVGID_00000020385165532830641640000010706225647110199958_);fill:#F32735;}
	.st6{clip-path:url(#SVGID_00000126289339948181257710000002775448659725608087_);fill:#F32735;}
</style>
<g id="Layer_1_00000174567661797669340260000009083021139966030523_">
</g>
<g id="Layer_3" class="st0">
	<path class="st1" d="M368.1,286.8l-156.2,49.5L138,359.7L410.5,77.2L368.1,286.8z M473.8,273.1l-230,72.9l-42.4,209.5L473.8,273.1z
		"/>
</g>
<g id="Layer_2_00000055665230948588834830000013247043030068156078_" class="st0">
	<rect x="-358.6" y="-90" class="st2" width="1329.1" height="792"/>
	<path class="st3" d="M368.1,286.8l-156.2,49.5L138,359.7L410.5,77.2L368.1,286.8z M473.8,273.1l-230,72.9l-42.4,209.5L473.8,273.1z
		"/>
</g>
<g id="Layer_4" class="st0">
	<g class="st2">
		<path class="st4" d="M105.4,318.8L87.2,409l117.3-121.6L105.4,318.8z M177.2,203L59.9,324.7l31.8-10.1l67.2-21.3L177.2,203z"/>
		<g>
			<g>
				<g>
					<g>
						<defs>
							<rect id="SVGID_1_" x="59.9" y="203" width="492.3" height="206"/>
						</defs>
						<clipPath id="SVGID_00000151517135463751609370000002027354047415322758_">
							<use xlink:href="#SVGID_1_"  style="overflow:visible;"/>
						</clipPath>
						<path style="clip-path:url(#SVGID_00000151517135463751609370000002027354047415322758_);fill:#F32735;" d="M549.7,318.7v44.2
							l-32.2-44.2h-2.2V367h2.4v-44l32.2,44h2.2v-48.3H549.7z M477,349.4l10.3-26.8l10.4,26.8H477z M504.5,367h2.6l-18.6-48.3h-2.2
							L467.6,367h2.6l5.9-15.3h22.5L504.5,367z M457,367h2.3v-48.3H457V367z M450.8,318.7h-34.9v2.4h16.3V367h2.3v-45.9h16.3
							L450.8,318.7L450.8,318.7z M383,349.4l10.3-26.8l10.3,26.8H383z M410.5,367h2.6l-18.6-48.3h-2.2L373.6,367h2.6l5.9-15.3h22.5
							L410.5,367z M347.9,365c-12.1,0-20.8-9.9-20.8-22.1c0.1-12.2,8.7-22.1,20.8-22.1c7.7,0,14.1,3.9,17.7,9.9l2.2-1
							c-4.1-6.8-11.2-11.3-19.9-11.3c-13.5,0-23.4,11-23.4,24.6s9.9,24.6,23.4,24.6c8.6,0,15.8-4.5,19.9-11.3l-2.2-1
							C362,361.1,355.6,365,347.9,365 M288.5,349.4l10.4-26.8l10.4,26.8H288.5z M316.1,367h2.6L300,318.7h-2.2L279.2,367h2.6
							l5.9-15.3h22.5L316.1,367z M253.4,365c-12.1,0-20.8-9.9-20.8-22.1c0.1-12.2,8.7-22.1,20.8-22.1c7.7,0,14.1,3.9,17.7,9.9l2.2-1
							c-4.1-6.8-11.2-11.3-19.9-11.3c-13.5,0-23.4,11-23.4,24.6s9.9,24.6,23.4,24.6c8.6,0,15.8-4.5,19.9-11.3l-2.2-1
							C267.5,361.1,261.2,365,253.4,365"/>
					</g>
				</g>
			</g>
		</g>
		<g>
			<g>
				<g>
					<g>
						<defs>
							<rect id="SVGID_00000055709293870047824160000011408820973661767598_" x="59.9" y="203" width="492.3" height="206"/>
						</defs>
						<clipPath id="SVGID_00000125583072877455753360000009811487346218174362_">
							<use xlink:href="#SVGID_00000055709293870047824160000011408820973661767598_"  style="overflow:visible;"/>
						</clipPath>
						<path style="clip-path:url(#SVGID_00000125583072877455753360000009811487346218174362_);fill:#F32735;" d="M432.3,290.4
							v-45.9h-2.4v48.3h29v-2.4H432.3z M389.5,290.4v-20.6h27.2v-2.3h-27.2V247h29.3v-2.4h-31.7v48.3h32.1v-2.4h-29.7L389.5,290.4
							L389.5,290.4z M372.4,292.9h2.3v-48.3h-2.3V292.9z M357.5,244.6v44.2l-32.2-44.2h-2.2v48.3h2.4v-44l32.2,44h2.2v-48.3
							L357.5,244.6L357.5,244.6z M284.8,275.2l10.4-26.8l10.4,26.8H284.8z M312.4,292.9h2.6l-18.6-48.3h-2.2l-18.6,48.3h2.6
							l5.9-15.3h22.5L312.4,292.9z M243.6,290.4h-11.1V247h11.1c12.8,0,22.5,7.7,22.5,21.7C266.1,282.7,256.1,290.4,243.6,290.4
							 M243.6,244.6H230v48.3h13.5c14.5,0,25.3-8.6,25.3-24.2S258,244.6,243.6,244.6"/>
					</g>
				</g>
			</g>
		</g>
	</g>
</g>
<g id="Layer_5">
	<g>
		<path class="st4" d="M226.7,344l-54.4,268l348.5-361.3L226.7,344z M439.7,0L91.2,361.6l94.5-30l199.6-63.3L439.7,0z"/>
	</g>
</g>
</svg>
